# xmcd
#
# Track frame offsets:
#	150
#	12006
#	32423
#	51261
#	65451
#	85024
#	97017
#	117230
#	133597
#	145934
#	163572
#	176383
#	199527
#
# Disc length: 2835 seconds
#
# Revision: 3
# Processed by: cddbd v1.4PL0 Copyright (c) Steve Scherf et al.
# Submitted via: EasyCDDAExtractor 5.0.6
#
DISCID=a20b110d
DTITLE=The Dusters - Dang
DYEAR=2002
DGENRE=Blues
TTITLE0=Goin' Up Easy
TTITLE1=Mexico
TTITLE2=How Long
TTITLE3=Red Sun
TTITLE4=Killin' Time
TTITLE5=Don't Love Me
TTITLE6=Night Is Gone
TTITLE7=She May Be Yours
TTITLE8=Poison Love
TTITLE9=Barn Door
TTITLE10=I'm Sorry
TTITLE11=Cadillac Blues
TTITLE12=Don't You Lie To Me
EXTD=
EXTT0=
EXTT1=
EXTT2=
EXTT3=
EXTT4=
EXTT5=
EXTT6=
EXTT7=
EXTT8=
EXTT9=
EXTT10=
EXTT11=
EXTT12=
PLAYORDER=
